<svg xmlns="http://www.w3.org/2000/svg" viewBox="0 0 358.16 512.01"><defs><style>.cls-1{fill:#ffc107;}</style></defs><title>46Ресурс 1</title><g id="Слой_2" data-name="Слой 2"><g id="Capa_1" data-name="Capa 1"><path class="cls-1" d="M179.08,256a128,128,0,1,0-128-128A128.13,128.13,0,0,0,179.08,256Zm0-192a64,64,0,1,1-64,64A64.06,64.06,0,0,1,179.08,64Z"/><path class="cls-1" d="M348.81,252.45a32,32,0,0,0-45.25,0c-68.61,68.61-180.29,68.61-248.93,0A32,32,0,1,0,9.38,297.73a238.54,238.54,0,0,0,142.3,68.42L60.46,457.38a32,32,0,1,0,45.25,45.25l73.38-73.38,73.38,73.38a32,32,0,1,0,45.25-45.25l-91.23-91.23a238.54,238.54,0,0,0,142.3-68.42A32,32,0,0,0,348.81,252.45Z"/></g></g></svg>