<svg xmlns="http://www.w3.org/2000/svg" viewBox="0 0 7.49 7.49"><style>.cls-1{fill:#f259a9;fill-rule:evenodd;}</style><path class="cls-1" d="M.42,7.49H7.07a.42.42,0,0,0,.42-.42V.42A.42.42,0,0,0,7.07,0H2.75A2.76,2.76,0,0,0,0,2.75V7.07a.42.42,0,0,0,.42.42ZM2,4.43H4.77s.08.11.08.24,0,.24-.08.24H2v1H2S1.9,6,1.76,6s-.24,0-.24-.08V3.36h0s0-.09,0-.13V3a1.49,1.49,0,0,1,.54-1.07A1.61,1.61,0,0,1,3,1.52H5.89s.08.11.08.24,0,.24-.08.24H3.18A1.18,1.18,0,0,0,2,3.16H2v.1s0,0,0,.06V4.43ZM5.87,3S6,2.91,6,2.78s0-.24-.08-.24H3.38a.85.85,0,0,0-.85.85c0,.21,0,.37,0,.58H4.71a.74.74,0,0,1,.69.64v.13a.73.73,0,0,1-.72.66H2.54s-.08.11-.08.24,0,.24.08.24H4.66A1.22,1.22,0,0,0,5.89,4.7v0a1.19,1.19,0,0,0-1.3-1.2H3a.57.57,0,0,1,0-.22A.37.37,0,0,1,3.26,3a.41.41,0,0,1,.2,0H5.87Z"/></svg>