<svg xmlns="http://www.w3.org/2000/svg" viewBox="0 0 238.78 126.13"><defs><style>.cls-1,.cls-2{fill:#f259a9;}.cls-2{fill-rule:evenodd;}</style></defs><title>Ресурс 1</title><g id="Слой_2" data-name="Слой 2"><g id="Слой_1-2" data-name="Слой 1"><path class="cls-1" d="M13.82,98.56c9.23-14.08,17.6-27.1,26.62-41.78A2.64,2.64,0,0,0,41,55.53c0-.33-.46-.53-1.11-.53h-20c-2.68,0-5.83.07-12.05-.19a18.56,18.56,0,0,1-2.62-.46c-.39,0-.65.33-.79,1.24-.33,2-1.31,7.92-1.31,9.43,0,.79.07,1.11.52,1.11s.66-.26.79-1.18A7.41,7.41,0,0,1,8,59.86c2.1-1.18,6.09-1.38,9.43-1.38H30.22c-8.78,13.82-18.47,28.62-27.7,43-.79,1.18-1,1.51-1,2s-2.1,3.17-1.39,3.16c9.24-.18,18.73-.36,26.5.82,76.94,11.76,114.11,38.44,212.13-6.26C202,113.07,186.47,120.1,146,119.06c-31.52-.82-57.28-6.75-93-14.91-17-3.88-21.7-5.59-39.15-5.59ZM65,97.24c-11.4,0-18.23-9.79-18.23-22.14,0-14.78,7.78-18.58,14.6-18.58,9.74,0,17.4,8.25,17.4,21.55,0,17.16-9.62,19.18-13.77,19.18Zm-2.49,3c15.08,0,24.58-10.75,24.58-24.34s-9.2-22.2-24-22.2c-17.81,0-24.52,13.12-24.52,23.27,0,10.51,6.89,23.27,23.93,23.27ZM101,58.35c0-.47.12-.71.53-.83a13,13,0,0,1,3.15-.24c3.5,0,9.09,2.43,9.09,10.86,0,4.87-1.72,7.6-3.5,8.91-1.07.77-1.84,1-4.22,1a15.64,15.64,0,0,1-4.51-.59c-.41-.18-.53-.42-.53-1.07v-18ZM94,82.16c0,5.46,0,10.15-.3,12.65-.24,1.72-.53,3-1.72,3.27a9.69,9.69,0,0,1-2.14.24c-.71,0-1,.18-1,.48s.42.59,1.19.59c2.37,0,6.11-.18,7.24-.18.89,0,5.28.18,8.73.18.77,0,1.19-.18,1.19-.59s-.24-.48-.71-.48a27.36,27.36,0,0,1-2.91-.24c-1.78-.24-2.14-1.54-2.31-3.27-.3-2.49-.3-7.19-.3-12.71v-.83c0-.36.18-.48.48-.48l5.16.12a1.24,1.24,0,0,1,1.07.42c.77.89,3.5,4.93,5.88,8.19,3.32,4.57,5.58,7.36,8.13,8.73,1.54.83,3,1.13,6.35,1.13h5.64a2.15,2.15,0,0,0,.82-.11c1.07,0,2-.07,2.43-.07.89,0,5.28.18,8.73.18.77,0,1.19-.18,1.19-.59s-.24-.48-.71-.48a27.33,27.33,0,0,1-2.91-.24c-1.78-.24-2.14-1.54-2.32-3.27-.3-2.49-.3-7.19-.3-12.71v-.83c0-.36.18-.48.48-.48l5.16.12a1.24,1.24,0,0,1,1.07.42c.77.89,3.5,4.93,5.88,8.19,3.33,4.57,5.58,7.36,8.13,8.73,1.54.83,3,1.13,6.35,1.13h5.64c.71,0,1.13-.12,1.13-.59,0-.3-.24-.48-.71-.48a9.33,9.33,0,0,1-1.66-.18c-.89-.18-3.33-.59-6.65-4-3.5-3.68-7.6-9-12.88-15.62,6-4.87,7.84-8.91,7.84-13.3a10.29,10.29,0,0,0-4-8.13c-3.21-2.2-7.18-2.55-10.92-2.55-1.84,0-6.35.18-8.37.18-1.25,0-5-.18-8.13-.18-.89,0-1.31.12-1.31.53s.36.53,1,.53a12.21,12.21,0,0,1,2.32.18c2,.42,2.43,1.36,2.55,3.38s.12,3.56.12,12.59V82.16c0,5.46,0,10.15-.3,12.65-.22,1.59-.49,2.83-1.47,3.2-1.16-.28-3.3-1.06-6.05-3.91-3.5-3.68-7.6-9-12.88-15.62,6-4.87,7.84-8.91,7.84-13.3a10.29,10.29,0,0,0-4-8.13c-3.21-2.2-7.18-2.55-10.92-2.55-1.84,0-6.35.18-8.37.18-1.25,0-5-.18-8.13-.18-.89,0-1.31.12-1.31.53s.36.53,1,.53a12.19,12.19,0,0,1,2.32.18c2,.42,2.43,1.36,2.55,3.38S94,62.68,94,71.71V82.16ZM140.6,58.35c0-.47.12-.71.53-.83a13,13,0,0,1,3.15-.24c3.5,0,9.09,2.43,9.09,10.86,0,4.87-1.72,7.6-3.5,8.91-1.07.77-1.84,1-4.22,1a15.64,15.64,0,0,1-4.51-.59c-.42-.18-.53-.42-.53-1.07v-18Zm53.58,38.89c-11.4,0-18.23-9.79-18.23-22.14,0-14.78,7.78-18.58,14.61-18.58,9.74,0,17.4,8.25,17.4,21.55,0,17.16-9.62,19.18-13.78,19.18Zm-2.49,3c15.08,0,24.58-10.75,24.58-24.34s-9.2-22.2-24-22.2c-17.81,0-24.52,13.12-24.52,23.27,0,10.51,6.89,23.27,23.93,23.27Z"/><polygon class="cls-2" points="231.63 43.5 214.27 51.26 218.48 53.01 208.38 62.03 209.61 63.18 210.62 64.53 220.71 55.5 221.98 59.88 231.63 43.5 231.6 43.53 231.63 43.5 231.63 43.5"/><path class="cls-2" d="M22.3,29.27a15.55,15.55,0,0,1-3.43-.46V15.11a15.55,15.55,0,0,1,3.43-.46A7.08,7.08,0,0,1,29.39,22a7.09,7.09,0,0,1-7.08,7.31ZM37.24.94,39.39,0l1.68,3.83,3.05-1.34.94,2.14L42,6l3.2,7.31a14,14,0,0,1,5.66-1.14c8.68,0,14.16,7,14.16,16s-5.48,16-14.16,16-14.16-7-14.16-16c0-5.88,2.36-10.93,6.45-13.71L39.86,6.91,36.8,8.25,35.86,6.1l3.05-1.34L37.24.94ZM18.88,30.87h5C26.42,30.87,34,30,34,22.19c0-8.22-7.54-9.14-11.42-9.14H10.65V14h.91c2.74,0,3.2,1.83,3.2,4.57V43.2h4.11V30.87Zm41.57-2.74c0,8.68-3.65,14.16-9.59,14.16s-9.59-5.48-9.59-14.16S44.92,14,50.86,14s9.59,5.48,9.59,14.16Zm12.11.69H76.9c5.71,0,8.68,2.51,8.68,6.85,0,4.11-3.2,6.62-8,6.62a11.06,11.06,0,0,1-9.36-4.57l-.91.69c2.74,4.34,6.4,5.71,11,5.71,5,0,11.88-1.6,11.88-8.68,0-3.88-1.83-6.62-7.54-7.77,4.34-1.37,6.4-4.11,6.4-7.08,0-7.31-6.4-8.45-11-8.45-3.2,0-7,1.19-8.68,3.2-1.14,1.37-1.14,3.2-1.14,5.94h.91C70.27,16.71,73.47,14,77.81,14c3.43,0,6.85,2.06,6.85,6.4S81,27,76.9,27H72.56v1.83Zm44.54-.69c0,8.68-3.65,14.16-9.59,14.16s-9.59-5.48-9.59-14.16S101.56,14,107.5,14s9.59,5.48,9.59,14.16Zm-23.76,0c0,9,5.48,16,14.16,16s14.16-7,14.16-16-5.48-16-14.16-16-14.16,7-14.16,16Zm42.72.69c5.71,0,8.68,2.28,8.68,6.4s-3.2,6.4-8.68,6.4a15.9,15.9,0,0,1-4.34-.64V28.81ZM131.72,27V15.11a15.55,15.55,0,0,1,3.43-.46c3.65,0,8.22,1.83,8.22,6.17,0,4.11-3.66,6.17-7.31,6.17Zm-8.22-13.93V14h.91c2.74,0,3.2,1.83,3.2,4.57V43.2h9.14c5.71,0,12.56-1.37,12.56-8.22,0-3.65-1.6-6.39-7.54-7.31,4.11-1.37,5.94-3.88,5.94-6.62,0-7.08-7.54-8-12.34-8Zm35.86,5.48c0-4.57-.91-5.48-4.11-5.48h-4.11V14H152c2.74,0,3.2,1.83,3.2,4.57V43.2h9.14c4.57,0,11.42-1.37,11.42-8.68s-6.85-8.68-11.42-8.68h-5V18.53Zm11.88,16c0,4.8-3.2,7.08-7.54,7.08a15.89,15.89,0,0,1-4.34-.64V28.08a15.87,15.87,0,0,1,4.34-.64c4.34,0,7.54,2.28,7.54,7.08Zm8.22,3.2c0,4.57.91,5.48,4.11,5.48h4.11v-.91h-.91c-2.74,0-3.2-1.83-3.2-4.57V13.05h-4.11V37.72Zm32,5.48h4.11V13.05h-4.11l-14.62,26V18.53c0-4.57-.91-5.48-4.11-5.48h-4.11V14h.91c2.74,0,3.2,1.83,3.2,4.57V43.2h4.11l14.62-26v26ZM204.12,8.48a6.11,6.11,0,0,1-5-2.06l-.91.69c1.14,2.51,3,4.11,5.94,4.11s4.8-1.6,5.94-4.11l-.91-.69a6.11,6.11,0,0,1-5,2.06Z"/></g></g></svg>