<svg xmlns="http://www.w3.org/2000/svg" viewBox="0 0 157.1 121.83"><path class="cls-1" d="M33.94,115.07a3.9,3.9,0,1,1,3.91,4.13,3.87,3.87,0,0,1-3.91-4.13Zm10.43,0v-6.45h-2.8v1.57a4.89,4.89,0,0,0-4.07-1.89,6.78,6.78,0,0,0,0,13.54,4.9,4.9,0,0,0,4.07-1.89v1.56h2.8v-6.45Zm94.71,0a3.9,3.9,0,1,1,3.91,4.13,3.87,3.87,0,0,1-3.91-4.13Zm10.44,0V103.44h-2.81v6.74a4.88,4.88,0,0,0-4.07-1.89,6.78,6.78,0,0,0,0,13.54,4.89,4.89,0,0,0,4.07-1.89v1.56h2.81v-6.45ZM79.17,110.8c1.81,0,3,1.13,3.26,3.13H75.74a3.32,3.32,0,0,1,3.42-3.13Zm.05-2.51c-3.78,0-6.42,2.75-6.42,6.77a6.36,6.36,0,0,0,6.61,6.77A7.84,7.84,0,0,0,84.7,120L83.32,118a6.14,6.14,0,0,1-3.75,1.35,3.58,3.58,0,0,1-3.86-3.15h9.57c0-.35.05-.7.05-1.08,0-4-2.51-6.77-6.12-6.77Zm33.84,6.77a3.9,3.9,0,1,1,3.91,4.13,3.87,3.87,0,0,1-3.91-4.13Zm10.44,0v-6.45H120.7v1.57a4.88,4.88,0,0,0-4.07-1.89,6.78,6.78,0,0,0,0,13.54,4.89,4.89,0,0,0,4.07-1.89v1.56h2.81v-6.45Zm-26.27,0a6.51,6.51,0,0,0,6.88,6.77,6.74,6.74,0,0,0,4.64-1.54L107.4,118a5.66,5.66,0,0,1-3.37,1.16,4.13,4.13,0,0,1,0-8.25,5.66,5.66,0,0,1,3.37,1.16l1.35-2.27a6.75,6.75,0,0,0-4.64-1.54,6.51,6.51,0,0,0-6.88,6.77Zm36.13-6.77a3.8,3.8,0,0,0-3.4,1.89v-1.57H127.2v12.89H130v-7.23c0-2.13.92-3.32,2.75-3.32a4.61,4.61,0,0,1,1.75.32l.86-2.64a6,6,0,0,0-2-.35Zm-75.13,1.35A9.62,9.62,0,0,0,53,108.3c-3.26,0-5.37,1.57-5.37,4.13,0,2.1,1.56,3.4,4.45,3.8l1.32.19c1.53.22,2.26.62,2.26,1.35,0,1-1,1.57-2.94,1.57A6.87,6.87,0,0,1,48.42,118l-1.32,2.18a9.3,9.3,0,0,0,5.58,1.67c3.72,0,5.88-1.75,5.88-4.21,0-2.27-1.7-3.45-4.51-3.86l-1.32-.19c-1.21-.16-2.18-.4-2.18-1.26s.92-1.51,2.45-1.51a8.3,8.3,0,0,1,4,1.11l1.21-2.27Zm36.17-1.35a3.8,3.8,0,0,0-3.4,1.89v-1.57H88.23v12.89H91v-7.23c0-2.13.92-3.32,2.75-3.32a4.6,4.6,0,0,1,1.75.32l.86-2.64a6,6,0,0,0-2-.35Zm-23.92.32H65.9v-3.91H63.07v3.91H60.45v2.56h2.62v5.88c0,3,1.16,4.77,4.48,4.77a6.57,6.57,0,0,0,3.51-1l-.81-2.4a5.18,5.18,0,0,1-2.48.73c-1.4,0-1.86-.86-1.86-2.16v-5.82h4.58v-2.56ZM28.58,121.51v-8.09a4.8,4.8,0,0,0-5.07-5.12A5,5,0,0,0,19,110.59a4.73,4.73,0,0,0-4.26-2.29,4.26,4.26,0,0,0-3.78,1.91v-1.59H8.13v12.89H11v-7.15c0-2.24,1.24-3.43,3.15-3.43s2.81,1.21,2.81,3.4v7.17h2.83v-7.15c0-2.24,1.3-3.43,3.16-3.43s2.83,1.21,2.83,3.4v7.17Z" fill="#676a6b"/><polygon class="cls-2" points="57.31 86.72 99.79 86.72 99.79 10.38 57.31 10.38 57.31 86.72 57.31 86.72" fill="gray"/><path class="cls-3" d="M60,48.55A48.47,48.47,0,0,1,78.55,10.38a48.55,48.55,0,1,0,0,76.34A48.47,48.47,0,0,1,60,48.55Z" fill="#989898"/><path class="cls-4" d="M157.1,48.55A48.55,48.55,0,0,1,78.55,86.72a48.56,48.56,0,0,0,0-76.34A48.55,48.55,0,0,1,157.1,48.55Z" fill="#bfbfbf"/></svg>