<svg xmlns="http://www.w3.org/2000/svg" viewBox="0 0 244.6 68.99"><path class="cls-1" d="M136.19,7.29,120.74,40.77h-1.57V0h-22V69h18.63a12.54,12.54,0,0,0,11.39-7.29l15.46-33.48h1.57V69h22V0H147.58a12.54,12.54,0,0,0-11.39,7.29Z" fill="#989898"/><path class="cls-1" d="M53.83,9.07l-9.14,31.7H43.12L34,9.07A12.55,12.55,0,0,0,21.92,0H0V69H21.95V28.22h1.57L36.06,69H51.74L64.29,28.22h1.57V69h22V0H65.88A12.55,12.55,0,0,0,53.83,9.07Z" fill="#989898"/><path class="cls-1" d="M175.61,31.36V69h21.91V47h23.56a23.51,23.51,0,0,0,22.15-15.68Z" fill="#989898"/><path class="cls-2" d="M221.09,0H172.48a34.49,34.49,0,0,0,33.91,28.22h37.75a23.91,23.91,0,0,0,.47-4.7A23.52,23.52,0,0,0,221.09,0Z" fill="#bfbfbf"/></svg>