<svg xmlns="http://www.w3.org/2000/svg" viewBox="0 0 156.99 121.83"><defs><style>.cls-1{fill:#676a6b;}.cls-1,.cls-2,.cls-3{fill-rule:evenodd;}.cls-2{fill:gray;}.cls-3{fill:#989898;}</style></defs><title>pay-maestroРесурс 1</title><g id="Слой_2" data-name="Слой 2"><g id="Слой_1-2" data-name="Слой 1"><polygon class="cls-1" points="99.72 86.66 57.27 86.66 57.27 10.37 99.72 10.37 99.72 86.66 99.72 86.66"/><path class="cls-2" d="M60,48.52A48.44,48.44,0,0,1,78.5,10.37a48.52,48.52,0,1,0,0,76.29A48.44,48.44,0,0,1,60,48.52Z"/><path class="cls-3" d="M157,48.52a48.52,48.52,0,0,1-78.5,38.14,48.52,48.52,0,0,0,0-76.29A48.52,48.52,0,0,1,157,48.52Z"/><path class="cls-1" d="M114.09,108.22a6,6,0,0,1,2,.35l-.86,2.64a4.54,4.54,0,0,0-1.75-.32c-1.83,0-2.75,1.18-2.75,3.31v7.22h-2.8V108.54h2.78v1.56a3.8,3.8,0,0,1,3.4-1.89Zm-10.36,2.88H99.15v5.82c0,1.29.46,2.16,1.86,2.16a5.16,5.16,0,0,0,2.48-.73l.81,2.4a6.57,6.57,0,0,1-3.5,1c-3.32,0-4.47-1.78-4.47-4.77V111.1H93.7v-2.56h2.62v-3.91h2.83v3.91h4.58v2.56Zm-35.87,2.75a3.32,3.32,0,0,1,3.42-3.13c1.8,0,3,1.13,3.26,3.13Zm9.6,1.13c0-4-2.51-6.76-6.12-6.76-3.77,0-6.41,2.75-6.41,6.76a6.35,6.35,0,0,0,6.6,6.76,7.83,7.83,0,0,0,5.28-1.8l-1.38-2.08a6.13,6.13,0,0,1-3.74,1.35,3.58,3.58,0,0,1-3.85-3.15H77.4c0-.35.06-.7.06-1.08Zm12.31-3.15a8.26,8.26,0,0,0-4-1.11c-1.54,0-2.45.57-2.45,1.51s1,1.1,2.18,1.26l1.32.19c2.8.41,4.5,1.59,4.5,3.86,0,2.45-2.16,4.2-5.87,4.2a9.3,9.3,0,0,1-5.58-1.67l1.32-2.18a6.87,6.87,0,0,0,4.29,1.35c1.91,0,2.94-.56,2.94-1.56,0-.73-.73-1.13-2.26-1.35l-1.32-.19c-2.88-.41-4.45-1.7-4.45-3.8,0-2.56,2.1-4.12,5.36-4.12A9.63,9.63,0,0,1,91,109.57l-1.21,2.26Zm34.56-1a4.24,4.24,0,0,0-1.61.3,3.86,3.86,0,0,0-1.28.85,4,4,0,0,0-.85,1.31,4.74,4.74,0,0,0,0,3.36,3.94,3.94,0,0,0,.85,1.31,3.86,3.86,0,0,0,1.28.85,4.42,4.42,0,0,0,3.21,0,3.85,3.85,0,0,0,1.29-.85,3.92,3.92,0,0,0,.86-1.31,4.74,4.74,0,0,0,0-3.36,3.93,3.93,0,0,0-.86-1.31,3.85,3.85,0,0,0-1.29-.85,4.23,4.23,0,0,0-1.61-.3Zm0-2.66a7.26,7.26,0,0,1,2.78.52,6.74,6.74,0,0,1,2.21,1.43,6.56,6.56,0,0,1,1.46,2.15,7.18,7.18,0,0,1,0,5.4,6.57,6.57,0,0,1-1.46,2.16,6.79,6.79,0,0,1-2.21,1.43,7.7,7.7,0,0,1-5.55,0,6.56,6.56,0,0,1-3.65-3.59,7.19,7.19,0,0,1,0-5.4,6.57,6.57,0,0,1,3.65-3.58,7.26,7.26,0,0,1,2.78-.52ZM51.48,115a3.9,3.9,0,1,1,3.91,4.12A3.87,3.87,0,0,1,51.48,115Zm10.43,0v-6.44h-2.8v1.56A4.89,4.89,0,0,0,55,108.22a6.77,6.77,0,0,0,0,13.53,4.89,4.89,0,0,0,4.07-1.89v1.56h2.8V115Zm-15.79,6.44v-8.08a4.8,4.8,0,0,0-5.07-5.12,5,5,0,0,0-4.53,2.29,4.73,4.73,0,0,0-4.26-2.29,4.26,4.26,0,0,0-3.77,1.91v-1.59h-2.8v12.88h2.83v-7.14c0-2.24,1.24-3.42,3.15-3.42s2.8,1.21,2.8,3.4v7.17h2.83v-7.14c0-2.24,1.3-3.42,3.15-3.42s2.83,1.21,2.83,3.4v7.17Z"/></g></g></svg>