<svg xmlns="http://www.w3.org/2000/svg" viewBox="0 0 236.3 92.63"><defs><style>.cls-1{fill:#f259a9;fill-rule:evenodd;}</style></defs><title>Ресурс 1</title><g id="Слой_2" data-name="Слой 2"><g id="Слой_1-2" data-name="Слой 1"><path class="cls-1" d="M234,73.46c2.86-39,6.54-55.3-13.72-65.93C198.86-3.73,168.86.11,118.15,3.33,67.43.11,37.44-3.73,16,7.53-4.29,18.17-.6,34.42,2.26,73.46,28.44,85.08,51.71,100.73,81.38,87.7,96.56,81,100.08,69,118.15,67.45,136.22,69,139.74,81,154.92,87.7c29.67,13,52.94-2.62,79.12-14.24ZM97.43,48.3C77.6,16.74,60.92,32.35,31.63,24.54c5.82,11.08,5.38,30.92,35.77,33,8,.54,15.63-1.62,23.07-4.28,3.62-1.29,7.9-.13,10.54.57L97.43,48.3Zm41.44,0c19.83-31.55,36.5-15.95,65.8-23.76-5.82,11.08-5.38,30.92-35.77,33-8,.54-15.63-1.62-23.07-4.28-3.62-1.29-7.9-.13-10.54.57l3.58-5.49Z"/><path class="cls-1" d="M8.19,70.63a1.35,1.35,0,1,1-1.77.7,1.35,1.35,0,0,1,1.77-.7ZM13.69,73a1.35,1.35,0,1,1-1.77.71A1.35,1.35,0,0,1,13.69,73Zm5.51,2.37a1.35,1.35,0,1,1-1.77.7,1.35,1.35,0,0,1,1.77-.7Zm5.51,2.37a1.35,1.35,0,1,1-1.77.7,1.35,1.35,0,0,1,1.77-.7Zm5.5,2.37a1.35,1.35,0,1,1-1.77.7,1.35,1.35,0,0,1,1.77-.7Zm5.51,2.37a1.35,1.35,0,1,1-1.77.7,1.35,1.35,0,0,1,1.77-.7Zm6,1.11a1.35,1.35,0,1,1-1.77.7,1.35,1.35,0,0,1,1.77-.7Zm5.87,0a1.35,1.35,0,1,1-1.77.7,1.35,1.35,0,0,1,1.77-.7Zm5.87-.48a1.35,1.35,0,1,1-1.77.7,1.35,1.35,0,0,1,1.77-.7Z"/><path class="cls-1" d="M200.38,88.33c-9.33-.4-28.92.62-43-10.6-20.72-16.51-19.06-31.36-39.27-27.81V50c-21-3.7-18.17,11.06-38.93,27.69C65.12,89,45.81,88.15,36.48,88.55c8,2.88,19.56,5.4,31.28,3.27,15.77-1.76,23-9.73,31-16.15A38.19,38.19,0,0,1,107.57,70a34.81,34.81,0,0,1,10.69-2.56A35,35,0,0,1,129,70a38.22,38.22,0,0,1,8.84,5.65c5.31,4.3,10.71,9.42,18.18,12.77,13.73,6.18,30.52,5,44.38-.11Z"/><path class="cls-1" d="M227.5,70.63a1.35,1.35,0,1,0,1.77.7,1.35,1.35,0,0,0-1.77-.7ZM222,73a1.35,1.35,0,1,0,1.77.71A1.35,1.35,0,0,0,222,73Zm-5.5,2.37a1.35,1.35,0,1,0,1.77.7,1.35,1.35,0,0,0-1.77-.7ZM211,77.74a1.35,1.35,0,1,0,1.77.7,1.35,1.35,0,0,0-1.77-.7Zm-5.51,2.37a1.35,1.35,0,1,0,1.77.7,1.35,1.35,0,0,0-1.77-.7ZM200,82.49a1.35,1.35,0,1,0,1.77.7,1.35,1.35,0,0,0-1.77-.7Zm-6,1.11a1.35,1.35,0,1,0,1.77.7,1.35,1.35,0,0,0-1.77-.7Zm-5.87,0a1.35,1.35,0,1,0,1.77.7,1.35,1.35,0,0,0-1.77-.7Zm-5.87-.48a1.35,1.35,0,1,0,1.77.7,1.35,1.35,0,0,0-1.77-.7Z"/><path class="cls-1" d="M101.75,53.79C93.82,73.68,74.4,87.7,56.4,91.08c-5.24,1-6.45,1.07-10.77.09-.93-.21-2.89-.66-4.09-1-2.79-.81-5.52-1.74-8.21-2.74a49.85,49.85,0,0,0,5.41.23c20,.17,44.4-11.89,57.31-31.44.32-.48,1.56-2.63,1.86-3.12,1.81.07,3.21,1,3.83.68Z"/><path class="cls-1" d="M227.36,12.31A24.42,24.42,0,0,1,231.51,17a57.28,57.28,0,0,1-28.33,38.39A57.41,57.41,0,0,1,143,52.66a10.29,10.29,0,0,1,2.83.55c7.44,2.65,15.07,4.81,23.07,4.28,30.12-2,30-21.52,35.62-32.66,5.65-4.2,16.26-5.91,22.88-12.53Z"/></g></g></svg>