<svg xmlns="http://www.w3.org/2000/svg" viewBox="0 0 240 231.83"><style>.cls-1,.cls-2{fill:#fff;}.cls-2{fill-rule:evenodd;}</style><path class="cls-1" d="M15,204.26c9.23-14.08,17.6-27.1,26.62-41.78a2.64,2.64,0,0,0,.52-1.24c0-.33-.46-.53-1.11-.53h-20c-2.68,0-5.83.07-12.05-.19a18.56,18.56,0,0,1-2.62-.46c-.39,0-.65.33-.79,1.24-.33,2-1.31,7.92-1.31,9.43,0,.79.07,1.11.52,1.11s.66-.26.79-1.18a7.41,7.41,0,0,1,3.54-5.11c2.1-1.18,6.09-1.38,9.43-1.38H31.44C22.66,178,13,192.8,3.74,207.21c-.79,1.18-1,1.51-1,2s-2.1,3.17-1.39,3.16c9.24-.18,18.73-.36,26.5.82C104.81,224.91,142,251.59,240,206.89c-36.81,11.88-52.31,18.91-92.8,17.87-31.52-.82-57.28-6.75-93-14.91-17-3.88-21.7-5.59-39.15-5.59Zm51.15-1.32c-11.4,0-18.23-9.79-18.23-22.14,0-14.78,7.78-18.58,14.6-18.58,9.74,0,17.4,8.25,17.4,21.55,0,17.16-9.62,19.18-13.77,19.18Zm-2.49,3c15.08,0,24.58-10.75,24.58-24.34s-9.2-22.2-24-22.2c-17.81,0-24.52,13.12-24.52,23.27,0,10.51,6.89,23.27,23.93,23.27ZM102.18,164c0-.47.12-.71.53-.83a13,13,0,0,1,3.15-.24c3.5,0,9.09,2.43,9.09,10.86,0,4.87-1.72,7.6-3.5,8.91-1.07.77-1.84,1-4.22,1a15.64,15.64,0,0,1-4.51-.59c-.41-.18-.53-.42-.53-1.07V164Zm-7,23.81c0,5.46,0,10.15-.3,12.65-.24,1.72-.53,3-1.72,3.27A9.69,9.69,0,0,1,91,204c-.71,0-1,.18-1,.48s.42.59,1.19.59c2.37,0,6.11-.18,7.24-.18.89,0,5.28.18,8.73.18.77,0,1.19-.18,1.19-.59s-.24-.48-.71-.48a27.36,27.36,0,0,1-2.91-.24c-1.78-.24-2.14-1.54-2.31-3.27-.3-2.49-.3-7.19-.3-12.71V187c0-.36.18-.48.48-.48l5.16.12a1.24,1.24,0,0,1,1.07.42c.77.89,3.5,4.93,5.88,8.19,3.32,4.57,5.58,7.36,8.13,8.73,1.54.83,3,1.13,6.35,1.13h5.64a2.15,2.15,0,0,0,.82-.11c1.07,0,2-.07,2.43-.07.89,0,5.28.18,8.73.18.77,0,1.19-.18,1.19-.59s-.24-.48-.71-.48a27.33,27.33,0,0,1-2.91-.24c-1.78-.24-2.14-1.54-2.32-3.27-.3-2.49-.3-7.19-.3-12.71V187c0-.36.18-.48.48-.48l5.16.12a1.24,1.24,0,0,1,1.07.42c.77.89,3.5,4.93,5.88,8.19,3.33,4.57,5.58,7.36,8.13,8.73,1.54.83,3,1.13,6.35,1.13h5.64c.71,0,1.13-.12,1.13-.59,0-.3-.24-.48-.71-.48a9.33,9.33,0,0,1-1.66-.18c-.89-.18-3.33-.59-6.65-4-3.5-3.68-7.6-9-12.88-15.62,6-4.87,7.84-8.91,7.84-13.3a10.29,10.29,0,0,0-4-8.13c-3.21-2.2-7.18-2.55-10.92-2.55-1.84,0-6.35.18-8.37.18-1.25,0-5-.18-8.13-.18-.89,0-1.31.12-1.31.53s.36.53,1,.53a12.21,12.21,0,0,1,2.32.18c2,.42,2.43,1.36,2.55,3.38s.12,3.56.12,12.59v10.45c0,5.46,0,10.15-.3,12.65-.22,1.59-.49,2.83-1.47,3.2-1.16-.28-3.3-1.06-6.05-3.91-3.5-3.68-7.6-9-12.88-15.62,6-4.87,7.84-8.91,7.84-13.3a10.29,10.29,0,0,0-4-8.13c-3.21-2.2-7.18-2.55-10.92-2.55-1.84,0-6.35.18-8.37.18-1.25,0-5-.18-8.13-.18-.89,0-1.31.12-1.31.53s.36.53,1,.53a12.19,12.19,0,0,1,2.32.18c2,.42,2.43,1.36,2.55,3.38s.12,3.56.12,12.59v10.45ZM141.82,164c0-.47.12-.71.53-.83a13,13,0,0,1,3.15-.24c3.5,0,9.09,2.43,9.09,10.86,0,4.87-1.72,7.6-3.5,8.91-1.07.77-1.84,1-4.22,1a15.64,15.64,0,0,1-4.51-.59c-.42-.18-.53-.42-.53-1.07V164Zm53.58,38.89c-11.4,0-18.23-9.79-18.23-22.14,0-14.78,7.78-18.58,14.61-18.58,9.74,0,17.4,8.25,17.4,21.55,0,17.16-9.62,19.18-13.78,19.18Zm-2.49,3c15.08,0,24.58-10.75,24.58-24.34s-9.2-22.2-24-22.2c-17.81,0-24.52,13.12-24.52,23.27,0,10.51,6.89,23.27,23.93,23.27Z"/><polygon class="cls-2" points="232.85 149.2 215.49 156.96 219.7 158.7 209.6 167.73 210.83 168.88 211.84 170.23 221.93 161.2 223.2 165.58 232.85 149.2 232.82 149.22 232.85 149.2 232.85 149.2"/><path class="cls-2" d="M23.52,135a15.55,15.55,0,0,1-3.43-.46V120.8a15.55,15.55,0,0,1,3.43-.46,7.31,7.31,0,0,1,0,14.62Zm14.94-28.33,2.14-.94,1.68,3.83,3.05-1.34.94,2.14-3.05,1.34,3.2,7.31a14,14,0,0,1,5.66-1.14c8.68,0,14.16,7,14.16,16s-5.48,16-14.16,16-14.16-7-14.16-16c0-5.88,2.36-10.93,6.45-13.71l-3.28-7.51L38,113.94l-.94-2.14,3.05-1.34-1.67-3.83ZM20.1,136.57h5c2.51,0,10.05-.91,10.05-8.68,0-8.22-7.54-9.14-11.42-9.14H11.87v.91h.91c2.74,0,3.2,1.83,3.2,4.57V148.9H20.1V136.57Zm41.57-2.74C61.67,142.5,58,148,52.08,148s-9.59-5.48-9.59-14.16,3.66-14.16,9.59-14.16,9.59,5.48,9.59,14.16Zm12.11.69h4.34c5.71,0,8.68,2.51,8.68,6.85,0,4.11-3.2,6.62-8,6.62a11.06,11.06,0,0,1-9.36-4.57l-.91.69c2.74,4.34,6.4,5.71,11,5.71,5,0,11.88-1.6,11.88-8.68,0-3.88-1.83-6.62-7.54-7.77,4.34-1.37,6.4-4.11,6.4-7.08,0-7.31-6.4-8.45-11-8.45-3.2,0-7,1.19-8.68,3.2-1.14,1.37-1.14,3.2-1.14,5.94h.91c1.14-4.57,4.34-7.31,8.68-7.31,3.43,0,6.85,2.06,6.85,6.4s-3.66,6.62-7.77,6.62H73.78v1.83Zm44.54-.69c0,8.68-3.65,14.16-9.59,14.16s-9.59-5.48-9.59-14.16,3.66-14.16,9.59-14.16,9.59,5.48,9.59,14.16Zm-23.76,0c0,9,5.48,16,14.16,16s14.16-7,14.16-16-5.48-16-14.16-16-14.16,7-14.16,16Zm42.72.69c5.71,0,8.68,2.28,8.68,6.4s-3.2,6.4-8.68,6.4a15.9,15.9,0,0,1-4.34-.64V134.51Zm-4.34-1.83V120.8a15.55,15.55,0,0,1,3.43-.46c3.65,0,8.22,1.83,8.22,6.17,0,4.11-3.66,6.17-7.31,6.17Zm-8.22-13.93v.91h.91c2.74,0,3.2,1.83,3.2,4.57V148.9H138c5.71,0,12.56-1.37,12.56-8.22,0-3.65-1.6-6.39-7.54-7.31,4.11-1.37,5.94-3.88,5.94-6.62,0-7.08-7.54-8-12.34-8Zm35.86,5.48c0-4.57-.91-5.48-4.11-5.48h-4.11v.91h.91c2.74,0,3.2,1.83,3.2,4.57V148.9h9.14c4.57,0,11.42-1.37,11.42-8.68s-6.85-8.68-11.42-8.68h-5v-7.31Zm11.88,16c0,4.8-3.2,7.08-7.54,7.08a15.89,15.89,0,0,1-4.34-.64V133.78a15.87,15.87,0,0,1,4.34-.64c4.34,0,7.54,2.28,7.54,7.08Zm8.22,3.2c0,4.57.91,5.48,4.11,5.48h4.11V148H188c-2.74,0-3.2-1.83-3.2-4.57V118.75h-4.11v24.67Zm32,5.48h4.11V118.75h-4.11l-14.62,26V124.23c0-4.57-.91-5.48-4.11-5.48h-4.11v.91h.91c2.74,0,3.2,1.83,3.2,4.57V148.9H198l14.62-26v26Zm-7.31-34.72a6.11,6.11,0,0,1-5-2.06l-.91.69c1.14,2.51,3,4.11,5.94,4.11s4.8-1.6,5.94-4.11l-.91-.69a6.11,6.11,0,0,1-5,2.06Z"/><path class="cls-2" d="M234,73.46c2.86-39,6.54-55.29-13.72-65.93C198.86-3.73,168.86.11,118.15,3.33,67.43.11,37.44-3.73,16,7.53-4.29,18.17-.6,34.42,2.26,73.46,28.44,85.08,51.71,100.73,81.38,87.7,96.56,81,100.08,69,118.15,67.45,136.22,69,139.74,81,154.92,87.7c29.67,13,52.94-2.62,79.12-14.24ZM97.43,48.3C77.6,16.75,60.92,32.35,31.63,24.54c5.82,11.08,5.38,30.92,35.77,33,8,.54,15.63-1.62,23.07-4.28,3.62-1.29,7.9-.13,10.54.57L97.43,48.3Zm41.44,0c19.83-31.55,36.5-15.95,65.8-23.76-5.82,11.08-5.38,30.92-35.77,33-8,.54-15.63-1.62-23.07-4.28-3.62-1.29-7.9-.13-10.54.57l3.58-5.49Z"/><path class="cls-2" d="M8.19,70.63a1.35,1.35,0,1,1-1.77.7,1.35,1.35,0,0,1,1.77-.7ZM13.69,73a1.35,1.35,0,1,1-1.77.71A1.35,1.35,0,0,1,13.69,73Zm5.51,2.37a1.35,1.35,0,1,1-1.77.71,1.35,1.35,0,0,1,1.77-.71Zm5.51,2.37a1.35,1.35,0,1,1-1.77.7,1.35,1.35,0,0,1,1.77-.7Zm5.51,2.37a1.35,1.35,0,1,1-1.77.7,1.35,1.35,0,0,1,1.77-.7Zm5.51,2.37a1.35,1.35,0,1,1-1.77.71,1.35,1.35,0,0,1,1.77-.71Zm6,1.11a1.35,1.35,0,1,1-1.77.7,1.35,1.35,0,0,1,1.77-.7Zm5.87,0a1.35,1.35,0,1,1-1.77.7,1.35,1.35,0,0,1,1.77-.7Zm5.87-.48a1.35,1.35,0,1,1-1.77.7,1.35,1.35,0,0,1,1.77-.7Z"/><path class="cls-2" d="M200.38,88.33c-9.33-.4-28.92.62-43-10.6-20.72-16.51-19.06-31.35-39.27-27.81V50c-21-3.7-18.17,11.06-38.93,27.69C65.12,89,45.81,88.15,36.48,88.55c8,2.88,19.56,5.4,31.28,3.27,15.77-1.76,23-9.73,31-16.15A38.21,38.21,0,0,1,107.57,70a34.81,34.81,0,0,1,10.7-2.56A35,35,0,0,1,129,70a38.27,38.27,0,0,1,8.84,5.65c5.31,4.3,10.71,9.42,18.18,12.77,13.73,6.18,30.52,5,44.38-.11Z"/><path class="cls-2" d="M227.5,70.63a1.35,1.35,0,1,0,1.77.7,1.35,1.35,0,0,0-1.77-.7ZM222,73a1.35,1.35,0,1,0,1.77.71A1.35,1.35,0,0,0,222,73Zm-5.51,2.37a1.35,1.35,0,1,0,1.77.71,1.35,1.35,0,0,0-1.77-.71ZM211,77.74a1.35,1.35,0,1,0,1.77.7,1.35,1.35,0,0,0-1.77-.7Zm-5.51,2.37a1.35,1.35,0,1,0,1.77.7,1.35,1.35,0,0,0-1.77-.7ZM200,82.49a1.35,1.35,0,1,0,1.77.71,1.35,1.35,0,0,0-1.77-.71Zm-6,1.11a1.35,1.35,0,1,0,1.77.7,1.35,1.35,0,0,0-1.77-.7Zm-5.87,0a1.35,1.35,0,1,0,1.77.7,1.35,1.35,0,0,0-1.77-.7Zm-5.87-.48a1.35,1.35,0,1,0,1.77.7,1.35,1.35,0,0,0-1.77-.7Z"/><path class="cls-2" d="M101.75,53.79C93.82,73.68,74.4,87.7,56.4,91.08c-5.24,1-6.45,1.07-10.77.09-.93-.21-2.89-.66-4.09-1-2.79-.81-5.52-1.74-8.21-2.75a49.82,49.82,0,0,0,5.41.23c20,.17,44.41-11.89,57.31-31.44.32-.48,1.56-2.63,1.86-3.12,1.81.07,3.21,1,3.83.68Z"/><path class="cls-2" d="M227.36,12.31A24.44,24.44,0,0,1,231.51,17a57.28,57.28,0,0,1-28.33,38.39A57.41,57.41,0,0,1,143,52.66a10.31,10.31,0,0,1,2.83.56c7.44,2.66,15.07,4.81,23.07,4.28,30.12-2,30-21.52,35.62-32.66,5.65-4.2,16.26-5.91,22.88-12.53Z"/></svg>