<svg xmlns="http://www.w3.org/2000/svg" viewBox="0 0 59.08 54.12"><defs><style>.cls-1{fill:#f259a9;}</style></defs><title>plus5Ресурс 1</title><g id="Слой_2" data-name="Слой 2"><g id="Слой_1-2" data-name="Слой 1"><path class="cls-1" d="M47.14,31.6a1.06,1.06,0,1,0,.75,1.81l0,0a1.06,1.06,0,0,0,0-1.47l0,0a1.06,1.06,0,0,0-.73-.29ZM12.61,39.11,10,41.73a.57.57,0,0,1-1-.4V33.21a1.07,1.07,0,0,0-.34-.69,1.05,1.05,0,0,0-.71-.28H3.31a1.19,1.19,0,0,1-.85-.35l0,0a1.19,1.19,0,0,1-.31-.8V3.32a1.2,1.2,0,0,1,1.2-1.2H49.54a1.2,1.2,0,0,1,1.2,1.2V14a1.06,1.06,0,0,0,2.12,0V3.32A3.32,3.32,0,0,0,49.57,0H3.24A3.32,3.32,0,0,0,0,3.32V31.05a3.31,3.31,0,0,0,3.31,3.31h3a.57.57,0,0,1,.57.57V45.26a1.05,1.05,0,0,0,.65,1l.2.06h.21A1.05,1.05,0,0,0,8.69,46l5.64-5.6a.93.93,0,0,0,.26-1,1.11,1.11,0,0,0-.25-.37,1.16,1.16,0,0,0-.39-.25l0,0a1.23,1.23,0,0,0-1.29.38Zm44.35,3a1.2,1.2,0,0,1-1.2,1.2H53a1.06,1.06,0,0,0-1.05,1v4.84a.57.57,0,0,1-1,.4c-1.91-1.91-4-4.18-6-6a1.07,1.07,0,0,0-.32-.19,1.05,1.05,0,0,0-.37-.07H23.41a1.2,1.2,0,0,1-1.2-1.2V23.2a1.19,1.19,0,0,1,.35-.85l0,0a1.19,1.19,0,0,1,.8-.31H55.76A1.2,1.2,0,0,1,57,23.2V42.12Zm-1.2-22.23H23.41a3.32,3.32,0,0,0-3.31,3.31V42.12a3.32,3.32,0,0,0,3.31,3.31H43.66a.57.57,0,0,1,.4.17l8.21,8.21a1,1,0,0,0,.75.31l.21,0,.2-.06a1.06,1.06,0,0,0,.65-1V46a.57.57,0,0,1,.57-.57h1.12a3.32,3.32,0,0,0,3.31-3.31V23.2a3.31,3.31,0,0,0-3.31-3.31ZM39.59,31.6a1.06,1.06,0,0,0-.75.31l0,0a1.06,1.06,0,0,0,0,1.47h0a1.06,1.06,0,0,0,1.5,0,1.06,1.06,0,0,0,0-1.5l0,0a1.06,1.06,0,0,0-.73-.29Zm-28-20.85a1.06,1.06,0,1,0,0,2.12H41.22a1.06,1.06,0,0,0,.75-.31l0,0a1.06,1.06,0,0,0-.77-1.78Zm3.2,10.75h-3.2a1.06,1.06,0,0,0-.75.31l0,0a1.06,1.06,0,0,0,.77,1.78h3.2a1.06,1.06,0,1,0,0-2.12ZM32,31.6a1.06,1.06,0,0,0-.75,1.81l0,0a1.06,1.06,0,0,0,1.47,0l0,0A1.06,1.06,0,0,0,32,31.6Z"/></g></g></svg>