<svg xmlns="http://www.w3.org/2000/svg" viewBox="0 0 63.7 67.95"><defs><style>.cls-1{fill:#f259a9;}</style></defs><title>plus2Ресурс 1</title><g id="Слой_2" data-name="Слой 2"><g id="Слой_1-2" data-name="Слой 1"><path class="cls-1" d="M32.84,65.37v-34l6.88-3.32a1,1,0,0,0-.87-1.79l-7,3.39-2.76-1.33a1,1,0,1,0-.87,1.79l2.63,1.27v34L2,51.44v-34L24,28.08a1,1,0,1,0,.87-1.79L3.28,15.89l9.89-4.77,29.9,14.43v12a1,1,0,0,0,1.43.9L52,34.81a1,1,0,0,0,.56-.9v-12l9.18-4.43v34L32.84,65.37ZM45.08,25.5l5.46-2.63V33.29l-5.46,2.63V25.5ZM21.35,7.21,49.87,21,44,23.8,15.52,10l5.83-2.83ZM31.85,2.1,60.41,15.89l-8.28,4L52,19.78,23.59,6.09l8.25-4ZM63.13,15,32.28.1a1,1,0,0,0-.87,0L.56,15a1,1,0,0,0-.56.9V52.06a1,1,0,0,0,.56.9L31.41,67.85a1,1,0,0,0,.87,0L63.13,53a1,1,0,0,0,.56-.9V15.89a1,1,0,0,0-.56-.9Z"/><path class="cls-1" d="M10.21,47.58,5.68,45.39a1,1,0,1,0-.87,1.79l4.53,2.19a1,1,0,1,0,.87-1.79Z"/><path class="cls-1" d="M14.37,44.86,5.68,40.67a1,1,0,1,0-.87,1.79l8.69,4.19a1,1,0,0,0,.87-1.79Z"/></g></g></svg>