<svg xmlns="http://www.w3.org/2000/svg" viewBox="0 0 55.8 66.98"><defs><style>.cls-1{fill:none;stroke:#f259a9;stroke-linecap:round;stroke-linejoin:round;stroke-width:1.98px;}</style></defs><title>plus3Ресурс 1</title><g id="Слой_2" data-name="Слой 2"><g id="Слой_1-2" data-name="Слой 1"><path class="cls-1" d="M28,1c-4.7,0-7.8,5.39-11.89,7.76S5.15,11,2.72,15.23s.74,10.08.74,15c0,4.73-3.55,9.82-.9,14.42s9,4.42,13.16,6.93S23.25,59.45,28,59.45s8.19-5.35,12.32-7.83,10.51-2.34,13.16-6.93-.9-9.69-.9-14.42c0-5,3.18-10.77.74-15s-9.18-4-13.4-6.48S32.7,1,28,1m3.64,9.57a19.92,19.92,0,1,1-6.92,0m3.26,7,2.82,8.75,9.19,0-7.45,5.39,2.86,8.74L28,35l-7.43,5.42,2.86-8.74L16,26.34l9.19,0L28,17.61ZM8.89,49,1,59.45l9.19-1.2L12.52,66l4.17-5.09m22.22-.18L43,66l2.34-7.78,9.42.89-7.71-10"/></g></g></svg>