<svg xmlns="http://www.w3.org/2000/svg" viewBox="0 0 92.81 37.68"><defs><style>.cls-1{fill:#f259a9;fill-rule:evenodd;}</style></defs><title>plus1Ресурс 1</title><g id="Слой_2" data-name="Слой 2"><g id="Слой_1-2" data-name="Слой 1"><path class="cls-1" d="M13.94,33.59a1.05,1.05,0,0,1,.31,0h0l.09,0c5.52,2,11.17,2.86,17.52.07a21,21,0,0,0,5.23-3.51c2.45-2.06,4.73-4,9.21-4.34h.2c4.47.38,6.75,2.29,9.19,4.34h0a21.08,21.08,0,0,0,5.23,3.52c9.28,4.08,17,.42,25.15-3.44,1.26-.6,2.52-1.2,3.78-1.76.1-1.35.2-2.54.29-3.67.92-11.45,1.33-16.64-5-20-7-3.65-16.57-3-31.78-2l-6.86.46h-.15l-6.85-.46c-15.21-1-24.83-1.7-31.78,2-6.36,3.34-5.95,8.53-5,20,.09,1.13.19,2.32.29,3.67L3,29a1.07,1.07,0,1,1-2.11.16C.76,27.79.65,26.37.54,25-.45,12.63-.9,7,6.71,3S24-.24,39.62.82l6.79.45L53.19.82C68.77-.24,78.61-.92,86.1,3s7.16,9.62,6.17,22c-.11,1.38-.23,2.84-.33,4.26a1.06,1.06,0,0,1-.63.93c-1.49.66-2.91,1.33-4.31,2-8.59,4.07-16.73,7.93-26.9,3.46a22.78,22.78,0,0,1-5.75-3.83h0C52.19,30,50.18,28.35,46.41,28c-3.77.34-5.78,2-7.94,3.84a22.81,22.81,0,0,1-5.75,3.84c-7.08,3.11-13.17,2.18-19.12,0h0a1.05,1.05,0,0,1,.34-2.05ZM79.61,9.39a1,1,0,0,1,1,.66h0a1.09,1.09,0,0,1,.05.15,1.06,1.06,0,0,1-.09.76,21.93,21.93,0,0,0-1.11,2.75C77.85,18.17,76,23.51,66,24.18a17.53,17.53,0,0,1-4.79-.38,34.28,34.28,0,0,1-4.49-1.32,6.2,6.2,0,0,0-3.36.23h-.06a1.06,1.06,0,0,1-1.13-1.64L53.46,19c5.4-8.58,10.2-8.59,16.34-8.6,1.07,0,2.18,0,3.35-.06h0a1.06,1.06,0,0,1,1.06,1.06,1.08,1.08,0,0,1-1.16,1.07c-1.13,0-2.21,0-3.26.05-5.48,0-9.77,0-14.55,7.62l0,0a5.47,5.47,0,0,1,2.16.27,32.44,32.44,0,0,0,4.2,1.24,15.45,15.45,0,0,0,4.22.34c8.61-.58,10.25-5.2,11.62-9l.29-.8h0v0c.27-.62.65-1.58.89-2.09a1,1,0,0,1,.16-.3h0a1,1,0,0,1,.83-.41Zm-42,10.77c-4.78-7.6-9.06-7.61-14.55-7.62A41.77,41.77,0,0,1,15,12l.38,1c1.37,3.85,3,8.47,11.62,9a15.45,15.45,0,0,0,4.22-.34,32.45,32.45,0,0,0,4.2-1.24,5.47,5.47,0,0,1,2.16-.27l0,0ZM23,10.42c6.14,0,10.94,0,16.34,8.6l1.34,2.05a1.06,1.06,0,0,1-1.13,1.64H39.5a6.2,6.2,0,0,0-3.36-.23,34.34,34.34,0,0,1-4.49,1.32,17.53,17.53,0,0,1-4.79.38c-10-.67-11.9-6-13.48-10.45A21.88,21.88,0,0,0,12.27,11a1.06,1.06,0,0,1,1.21-1.52,35.17,35.17,0,0,0,9.54,1Z"/></g></g></svg>