<svg xmlns="http://www.w3.org/2000/svg" viewBox="0 0 72.67 46.03"><defs><style>.cls-1{fill:#f259a9;fill-rule:evenodd;}</style></defs><title>plus4Ресурс 1</title><g id="Слой_2" data-name="Слой 2"><g id="Слой_1-2" data-name="Слой 1"><path class="cls-1" d="M23.88,17.31a1.07,1.07,0,1,1-2.1-.38h0C23.29,8.34,27.2,4.51,30.13,2.34A20.69,20.69,0,0,0,17.78,8.22c-3.94,4-6.17,9.67-6.28,16.22l0,1H2.24a.11.11,0,0,0-.08,0h0a.11.11,0,0,0,0,.08v0l0,0,.06.07,14,17.94a.11.11,0,0,0,.07,0,.11.11,0,0,0,.08,0h0l14.07-18a.11.11,0,0,0,0-.08.11.11,0,0,0,0-.07l0,0H22.18a1.06,1.06,0,0,1,0-2.12h8.2a2.29,2.29,0,0,1,.71.13,2.23,2.23,0,0,1,.64.35h0A2.22,2.22,0,0,1,32.12,27L18,45l-.18.21-.21.18A2.22,2.22,0,0,1,14.54,45L.55,27.05a2.22,2.22,0,0,1,.11-3h0a2.23,2.23,0,0,1,1.58-.66H9.41A25.06,25.06,0,0,1,16.27,6.73C20.43,2.52,26.32,0,33.51,0c.77,0,1.23.29,1.37.89a1.22,1.22,0,0,1-.74,1.39l-.52.31c-2.22,1.29-7.82,4.55-9.75,14.72Z"/><path class="cls-1" d="M48.79,28.72a1.07,1.07,0,1,1,2.1.38h0c-1.51,8.58-5.42,12.41-8.35,14.58a20.69,20.69,0,0,0,12.35-5.88c3.94-4,6.17-9.67,6.28-16.22l0-1h9.24a.11.11,0,0,0,.08,0h0a.11.11,0,0,0,0-.08v0l0,0-.06-.07-14-17.94a.11.11,0,0,0-.07,0,.11.11,0,0,0-.08,0h0l-14.07,18a.11.11,0,0,0,0,.08.11.11,0,0,0,0,.07l0,0h8.21a1.06,1.06,0,0,1,0,2.12h-8.2a2.29,2.29,0,0,1-.71-.13,2.23,2.23,0,0,1-.64-.35h0a2.22,2.22,0,0,1-.38-3.12L54.62,1,54.8.84,55,.66A2.22,2.22,0,0,1,58.13,1L72.12,19A2.22,2.22,0,0,1,72,22h0a2.23,2.23,0,0,1-1.58.66H63.25A25.06,25.06,0,0,1,56.4,39.3C52.23,43.52,46.35,46,39.16,46c-.77,0-1.23-.29-1.37-.89a1.22,1.22,0,0,1,.74-1.39l.52-.31c2.22-1.29,7.82-4.55,9.75-14.72Z"/></g></g></svg>