<svg xmlns="http://www.w3.org/2000/svg" viewBox="0 0 61.05 75.8"><defs><style>.cls-1{stroke:#000;stroke-linecap:round;stroke-linejoin:round;stroke-width:0.99px;}</style></defs><title>Ресурс 1</title><g id="Слой_2" data-name="Слой 2"><g id="Слой_1-2" data-name="Слой 1"><path class="cls-1" d="M8.28,68.42a31.83,31.83,0,0,0,16.81,6.87,2.26,2.26,0,0,0,2-3.73c-1.63-1.89-6.88-8.63-5.89-16.16.52-3.93,2.71-7.56,6.52-10.82,1.19,5.08,4,8.36,6.28,11.11s4.22,5,4.22,8.39a14.51,14.51,0,0,1-1.45,7,2.26,2.26,0,0,0,2.55,3.28,30.44,30.44,0,0,0,13.83-7.61A24.61,24.61,0,0,0,60.3,51.78C61.83,38.94,56.4,26,44.63,14.41A86,86,0,0,0,26.44.76a2.26,2.26,0,0,0-3.32,2c0,16.86-6.28,22.73-12.35,28.42C5.6,36,.25,41,.5,52.07A21.57,21.57,0,0,0,8.28,68.42Zm5.58-33.93c5.7-5.33,12.69-11.87,13.67-27.82,8.53,5.4,31,21.9,28.28,44.58-.94,7.89-5.77,14-13.47,17.29a24,24,0,0,0,.39-4.45c0-5-2.69-8.23-5.29-11.31-2.82-3.33-5.48-6.48-5.77-12.43a2.22,2.22,0,0,0-3.52-1.76c-6.77,4.57-10.62,10-11.44,16.22-.77,5.82,1.33,11.12,3.5,14.86C12.5,67.33,5.25,61.8,5,52c-.2-9,3.78-12.76,8.83-17.49Z"/></g></g></svg>