<svg xmlns="http://www.w3.org/2000/svg" viewBox="0 0 59.4 58.62"><style>.cls-1{fill:#f259a9;}.cls-2{fill:none;stroke:#f259a9;stroke-linecap:round;stroke-linejoin:round;stroke-width:2.83px;}</style><path class="cls-1" d="M54.6,37c3,0,4.89-1.63,4.8-4.81s-1.95-7-3.74-9.36a1.26,1.26,0,0,0-2.12,0c-1.82,2.37-3.75,6.48-3.75,9.57s2,4.6,4.81,4.6Zm-1-9.4a13.92,13.92,0,0,1,.87-1.5l0,0a.14.14,0,0,1,.2,0c.94,1.37,2.39,4.37,2.12,6.23a2.25,2.25,0,0,1-4.47,0c-.21-1.45.6-3.45,1.25-4.72Z"/><path class="cls-2" d="M16.46,37.79a18.18,18.18,0,0,1,25.71,0m0-15.58a3.38,3.38,0,0,1-6.76,0m-12.19,0a3.38,3.38,0,0,1-6.76,0m37,21a27.89,27.89,0,1,1,0-27.89"/></svg>