<svg xmlns="http://www.w3.org/2000/svg" viewBox="0 0 99.4 74.86"><title>filter_edu3Ресурс 1</title><g id="Слой_2" data-name="Слой 2"><g id="Слой_1-2" data-name="Слой 1"><path d="M56.38,67a51.73,51.73,0,0,0,6.32-1.16l.29-.09h0a2.07,2.07,0,0,1,1.55.32,2.65,2.65,0,0,1,1.12,1.64,2.05,2.05,0,0,1,.08.28v0a2.38,2.38,0,0,1-.32,1.68,2.68,2.68,0,0,1-1.28,1.11,2.22,2.22,0,0,1-.39.12,70.82,70.82,0,0,1-7.28,1.34,53.15,53.15,0,0,1-6.72.47,64.75,64.75,0,0,1-19.89-3.45,45.43,45.43,0,0,1-15.6-8.53,2.2,2.2,0,0,1-.85-1.92V44.26a2.67,2.67,0,0,1,.72-1.9l0,0a2.66,2.66,0,0,1,1.93-.74,2.54,2.54,0,0,1,2.67,2.67V57.52a42.92,42.92,0,0,0,13.83,7A57.67,57.67,0,0,0,49.81,67.4,55.12,55.12,0,0,0,56.38,67Zm43-44.62c0,.26,0,.52,0,.77a7.94,7.94,0,0,1-1.51,4.63,8.26,8.26,0,0,1-3.94,3l-2.83,1.05V57.71a2.54,2.54,0,0,1-.72,1.78l0,0A2.55,2.55,0,0,1,86,57.71V29.76a2.56,2.56,0,0,1,.07-.58,2.53,2.53,0,0,1,.19-.53,2.77,2.77,0,0,1,1.39-1.4l.06,0,4.61-1.78a3,3,0,0,0,1.43-1,2.48,2.48,0,0,0,.52-1.52,2.17,2.17,0,0,0-.42-1.4,2,2,0,0,0-1.24-.65l-.08,0L53.47,6.49a12.73,12.73,0,0,0-4.74-.9,15.09,15.09,0,0,0-5.06.9L7.08,20.41a2.54,2.54,0,0,0-1.23.94,3,3,0,0,0-.52,1.58,2.47,2.47,0,0,0,.5,1.4,2.69,2.69,0,0,0,1.23.89L46.14,39.36a15.38,15.38,0,0,0,4.85.82,12.52,12.52,0,0,0,4.5-.81c1.88-.75,3.91-1.38,5.76-2.16a2.56,2.56,0,0,1,2.05.09,2.84,2.84,0,0,1,1.41,1.48h0a2.56,2.56,0,0,1-.09,2,2.84,2.84,0,0,1-1.49,1.42l-5.75,2.16a12.77,12.77,0,0,1-3,1,16.58,16.58,0,0,1-3.45.36,19.28,19.28,0,0,1-3.27-.29,23.11,23.11,0,0,1-3.34-.85C39.57,43.19,7.69,31.88,5.21,30.28a8.28,8.28,0,0,1-3.79-2.92A7.64,7.64,0,0,1,0,22.93a8.25,8.25,0,0,1,1.43-4.68,7.71,7.71,0,0,1,3.79-2.91L41.81,1.2A19.61,19.61,0,0,1,48.41,0h.29a19.83,19.83,0,0,1,3.38.32,19.47,19.47,0,0,1,3.27.89L94.4,15.57A8,8,0,0,1,98,18.26a7.29,7.29,0,0,1,1.42,4.07v.05ZM74.09,35.93l-26.55-11a2.55,2.55,0,0,1,2-4.7l28,11.64a2.56,2.56,0,0,1,1.71,2.41V72.31a2.55,2.55,0,0,1-5.1,0V35.93Z"/></g></g></svg>