<svg xmlns="http://www.w3.org/2000/svg" viewBox="0 0 75.16 77.07"><defs><style>.cls-1{fill:#222220;stroke:#231f20;stroke-linecap:round;stroke-linejoin:round;stroke-width:0.71px;}</style></defs><title>filter_user_sizeРесурс 1</title><g id="Слой_2" data-name="Слой 2"><g id="Слой_1-2" data-name="Слой 1"><path class="cls-1" d="M74.78,18.11V18a1.94,1.94,0,0,0,0-.23v0a2.27,2.27,0,0,0-.09-.25l0,0a1.92,1.92,0,0,0-.11-.2l0,0L74.31,17l0,0-.16-.16,0,0-.21-.16,0,0-.22-.12h0L38.42.54A2,2,0,0,0,37.6.35h-.05a2.06,2.06,0,0,0-.82.18l-24.3,11a2.05,2.05,0,0,0,1.7,3.74L37.58,4.66,67.72,18.34,37.58,31.59,3.23,16.49h0l-.15-.06H3l-.13,0-.07,0H2.74l-.12,0H2l-.12,0-.07,0-.13,0-.06,0-.12.05-.06,0-.11.06-.07,0-.09.06-.07.05-.07.06L1,16.9.91,17,.84,17l-.06.08-.06.08-.06.1,0,.07-.07.13,0,0h0a1.48,1.48,0,0,0-.06.15v0l0,.13,0,.07s0,.05,0,.08l0,.12v0c0,.05,0,.1,0,.15h0v40a2,2,0,0,0,1.19,1.86L36.72,76.52h0l0,0,.21.08.07,0,.2,0h.06l.26,0h0l.23,0h.08l.18,0,.08,0,.19-.07.05,0h0L73.61,60.28a2.05,2.05,0,0,0,1.19-1.86v-40a2.12,2.12,0,0,0,0-.26ZM39.63,71.45V43.91a2.05,2.05,0,0,0-4.1,0V71.45L4.46,57.1V21.51L36.75,35.7a2.05,2.05,0,0,0,1.65,0L70.7,21.51V57.1L39.63,71.45Z"/></g></g></svg>