<svg xmlns="http://www.w3.org/2000/svg" viewBox="0 0 61.55 77.18"><title>filter_eduРесурс 1</title><g id="Слой_2" data-name="Слой 2"><g id="Слой_1-2" data-name="Слой 1"><path d="M11.32,10.85a2.71,2.71,0,0,1,1.92-.79H52.3a2.72,2.72,0,1,1,0,5.43H13.24a2.72,2.72,0,0,1-1.92-4.64Zm1.26,8.88H58.82a2.71,2.71,0,0,1,1.92.79,2.75,2.75,0,0,1,.81,1.85V74.47a2.72,2.72,0,0,1-2.72,2.72H12.58A12.6,12.6,0,0,1,0,64.6v-52A12.6,12.6,0,0,1,12.58,0H58.83a2.71,2.71,0,0,1,1.92.8h0a2.72,2.72,0,0,1-1.92,4.64H12.58a7.15,7.15,0,0,0,0,14.3Zm0,52H56.1V25.18H12.58a12.57,12.57,0,0,1-7.15-2.24V64.6a7.16,7.16,0,0,0,7.15,7.15Z"/></g></g></svg>