<svg xmlns="http://www.w3.org/2000/svg" viewBox="0 0 42.52 75.96"><defs><style>.cls-1{fill:#0b050c;}</style></defs><title>filter_user_size-2Ресурс 1</title><g id="Слой_2" data-name="Слой 2"><g id="Слой_1-2" data-name="Слой 1"><path class="cls-1" d="M2.43,4.86H40.09A2.43,2.43,0,0,0,41,4.68h0a2.43,2.43,0,0,0,.77-.52l0,0A2.43,2.43,0,0,0,40.09,0H2.43A2.41,2.41,0,0,0,.71.71h0a2.43,2.43,0,0,0,0,3.43v0a2.42,2.42,0,0,0,1.71.7Zm25,57.46L36.71,53a2.43,2.43,0,0,0,0-3.43h0a2.43,2.43,0,0,0-3.43,0L24,58.9a3.64,3.64,0,0,1-.55.45h0a3.58,3.58,0,0,1-.6.32h0a3.58,3.58,0,0,1-3.9-.8L9.58,49.54A2.43,2.43,0,0,0,6.93,49h0a2.43,2.43,0,0,0-.77.52l0,0a2.43,2.43,0,0,0,0,3.41l9.29,9.36A8.59,8.59,0,0,0,16.7,63.4a8.32,8.32,0,0,0,3,1.27,8.6,8.6,0,0,0,3.33,0,8.31,8.31,0,0,0,3-1.27,8.58,8.58,0,0,0,1.29-1.07Zm-12-48.13-9.3,9.38a2.42,2.42,0,0,0-.51.78A2.43,2.43,0,0,0,6.14,27h0a2.43,2.43,0,0,0,3.43,0l8.25-8.32a.58.58,0,0,1,.82,0,.57.57,0,0,1,.13.19.58.58,0,0,1,0,.22V45.79A2.43,2.43,0,0,0,23,47.5l0,0a2.41,2.41,0,0,0,.69-1.7v-27a.58.58,0,0,1,.82-.53.57.57,0,0,1,.19.14L33.24,27a2.43,2.43,0,0,0,.37.31,2.48,2.48,0,0,0,.42.23,2.44,2.44,0,0,0,.46.14,2.56,2.56,0,0,0,.48,0,2.43,2.43,0,0,0,1.71-.7l0,0a2.43,2.43,0,0,0,0-3.41L27.41,14.2a8.56,8.56,0,0,0-1.29-1.07,8.32,8.32,0,0,0-3-1.27h0a8.6,8.6,0,0,0-3.32,0,8.33,8.33,0,0,0-3,1.27,8.56,8.56,0,0,0-1.29,1.07Zm24.67,56.9H2.43a2.41,2.41,0,0,0-1.72.71h0a2.43,2.43,0,0,0,0,3.43l0,0a2.41,2.41,0,0,0,1.7.69H40.09a2.43,2.43,0,0,0,1.72-4.15l0,0a2.41,2.41,0,0,0-1.7-.69Z"/></g></g></svg>