<svg xmlns="http://www.w3.org/2000/svg" viewBox="0 0 55.15 76.78"><defs><style>.cls-1{fill:#0b050c;}</style></defs><title>filter_user_materialРесурс 1</title><g id="Слой_2" data-name="Слой 2"><g id="Слой_1-2" data-name="Слой 1"><path class="cls-1" d="M29.66,4.34c2.18-3.43-2.23-6.11-4.38-2.9C17.74,13.63,0,36.14,0,49.31A27.45,27.45,0,0,0,8.12,68.76a27.8,27.8,0,0,0,19.46,8A27.71,27.71,0,0,0,55.15,49.2c0-9.8-4.6-16.95-12.74-28.93A2.45,2.45,0,0,0,40,18.84a3.22,3.22,0,0,0-2.69,2.69A2.05,2.05,0,0,0,38,23.31c7.61,11.4,11.72,18,11.72,25.89a22.45,22.45,0,0,1-6.45,15.71,22,22,0,0,1-15.71,6.45,22.45,22.45,0,0,1-15.71-6.45A22,22,0,0,1,5.41,49.2c0-10.69,16.95-33.34,24.25-44.86Z"/></g></g></svg>