<svg xmlns="http://www.w3.org/2000/svg" viewBox="0 0 71.7 77.78"><title>filter_user_availabilityРесурс 1</title><g id="Слой_2" data-name="Слой 2"><g id="Слой_1-2" data-name="Слой 1"><path d="M41.74,74.69l8.72-4.23c-3,1.55-6,3-8.72,4.23Zm-40.43-54A2.34,2.34,0,0,1,.24,17.51c.44-.89,1.74-1.39,2.68-1.84L34.76.24a2.37,2.37,0,0,1,2.07,0l33,16a2.31,2.31,0,0,1,1.55,1.24v0a2.51,2.51,0,0,1,.18.51,2.42,2.42,0,0,1,.06.41.42.42,0,0,1,0,.17V59.16a2.36,2.36,0,0,1-.37,1.26,2.41,2.41,0,0,1-1,.87L36.91,77.5a.23.23,0,0,1-.17.09l-.1,0-.07,0-.07,0-.1,0-.11,0-.09,0-.15,0h0l-.25,0h-.26l-.12,0-.11,0-.12,0-.09,0-.09,0-.13-.06c-8.69-2.85-24.23-12-33.52-16.24A2.36,2.36,0,0,1,0,59.21V38.51a2.35,2.35,0,0,1,2.37-2.59,2.5,2.5,0,0,1,2.38,2.55V57.71L33.42,71.6V36.28Q17.35,28.49,1.31,20.64Zm62.47-2.06L35.79,5,26.1,9.71l28,13.57,9.7-4.71Zm-56,0,28,13.57,12.86-6.23-28-13.58L7.8,18.58Zm30.37,17.7V71.6l28.75-14V22.33l-11,5.34V45.44a2.37,2.37,0,0,1-4.75,0V30l-13,6.31Z"/></g></g></svg>