<svg xmlns="http://www.w3.org/2000/svg" viewBox="0 0 64.44 76.41"><defs><style>.cls-1{fill:#231f20;fill-rule:evenodd;}</style></defs><title>filter_user_brandРесурс 1</title><g id="Слой_2" data-name="Слой 2"><g id="Слой_1-2" data-name="Слой 1"><path class="cls-1" d="M51.71,65.52c-3.22,3.22-6.65-.94-3.84-3.63,11.75-11.27,11.4-27.43,11.12-42,0-1.16,0-2.29-.06-3.39C48.18,16,39.58,12.74,32.22,6.33c-7.36,6.41-16,9.67-26.71,10.12,0,1.1,0,2.23-.06,3.39C5.08,39.14,4.67,61,31.9,71c3.94,1.05,2.6,6.66-1.69,5.1C2.68,66.13,0,44.45,0,26.4v-.2C0,24,0,21.83.08,19.75s.08-4,.08-5.92a2.68,2.68,0,0,1,2.68-2.68c11.48,0,20.22-3.3,27.5-10.38a2.68,2.68,0,0,1,3.74,0c7.29,7.08,16,10.38,27.51,10.38a2.68,2.68,0,0,1,2.68,2.68c0,1.89,0,3.85.08,5.92.27,14.4.6,32.75-12.65,45.78Z"/></g></g></svg>