<svg xmlns="http://www.w3.org/2000/svg" viewBox="0 0 76.03 76.05"><defs><style>.cls-1{fill:#0b050c;}</style></defs><title>filter_user_priceРесурс 1</title><g id="Слой_2" data-name="Слой 2"><g id="Слой_1-2" data-name="Слой 1"><path class="cls-1" d="M27.47,4.9a3.57,3.57,0,0,1,2.53,1h0A3.57,3.57,0,0,1,30,11h0a3.57,3.57,0,0,1-5.06,0h0A3.58,3.58,0,0,1,27.47,4.9Zm21.1,7.16A3.58,3.58,0,0,1,46,5.95h0a3.57,3.57,0,0,1,5.06,0l0,0a3.58,3.58,0,0,1-2.56,6.08ZM72.09,40.43c-.53-1.23-1-2.42-1.5-3.6a26.32,26.32,0,0,1-1.11-3.49.57.57,0,0,1,0-.16V27.26l0-.21a6,6,0,0,0-6-5.05h-11a.57.57,0,0,1-.37-1A18.37,18.37,0,0,0,57.05,8.48,8.47,8.47,0,1,0,48,16.93a.57.57,0,0,1,.35,1,13.59,13.59,0,0,1-4.43,3A13.44,13.44,0,0,1,38.63,22H37.42a13.44,13.44,0,0,1-5.26-1.07,13.59,13.59,0,0,1-4.45-3,.57.57,0,0,1,.37-1A8.47,8.47,0,1,0,19,8.48a18.37,18.37,0,0,0,5,12.58.56.56,0,0,1-.41.95h-11a6,6,0,0,0-6,5.05l0,.21v6a.56.56,0,0,1,0,.13,42.88,42.88,0,0,1-2.6,7.08l0,0C2.08,44.73,0,49.55,0,55.21A18.76,18.76,0,0,0,3,66a18.93,18.93,0,0,0,9,6.78,47,47,0,0,0,12.39,2.71c4.52.46,9.24.56,13.66.56h0a114.67,114.67,0,0,0,17.36-1c5.34-.84,10.09-2.32,13.66-4.92l.06,0a2.45,2.45,0,0,0,.52-3.38l0-.05a2.45,2.45,0,0,0-3.4-.5c-3,2.22-7.34,3.48-12.27,4.19A116.15,116.15,0,0,1,38,71.15c-12.1,0-20.32-1-25.53-3.49C7.12,65.13,4.9,61.12,4.9,55.21c0-4.64,1.8-8.79,3.53-12.81,0,0,.6-1.39.66-1.54.22-.51.43-1,.64-1.54a.57.57,0,0,1,.53-.36H55.48a2.44,2.44,0,0,0,1.73-.72l0,0a2.45,2.45,0,0,0-1.76-4.15H12a.57.57,0,0,1-.57-.57V27.82a.56.56,0,0,1,0-.23,1.15,1.15,0,0,1,1.05-.69h50.9a1.15,1.15,0,0,1,.63.19l0,0a1.14,1.14,0,0,1,.38.47.56.56,0,0,1,0,.25v6l.05.26a29.29,29.29,0,0,0,1.27,4.21c.53,1.41,1.12,2.78,1.7,4.12A64.19,64.19,0,0,1,70,48.53a22.1,22.1,0,0,1,1.13,6.68,2.45,2.45,0,0,0,4.18,1.73l0,0A2.44,2.44,0,0,0,76,55.21c0-5.66-2.09-10.49-3.93-14.76v0Z"/></g></g></svg>