<svg xmlns="http://www.w3.org/2000/svg" viewBox="0 0 53.47 75.49"><title>filter_user_chargeРесурс 1</title><g id="Слой_2" data-name="Слой 2"><g id="Слой_1-2" data-name="Слой 1"><path d="M29.33,72.85V59.44a2.64,2.64,0,0,0-.2-1,2.56,2.56,0,0,0-.56-.84h0a2.6,2.6,0,0,0-.85-.57,2.49,2.49,0,0,0-1-.19h0A16.46,16.46,0,0,1,10.25,40.36V25.7H43.2V40.36h0A16.4,16.4,0,0,1,39,51.3a2.64,2.64,0,0,0-.66,1.82,2.6,2.6,0,0,0,.76,1.77l.15.15a2.61,2.61,0,0,0,1.85.62,2.58,2.58,0,0,0,1.79-.86h0a21.64,21.64,0,0,0,5.48-14.42h0V25.71h2.44a2.59,2.59,0,0,0,1.84-.76h0a2.64,2.64,0,0,0,.77-1.85h0a2.6,2.6,0,0,0-.76-1.84,2.64,2.64,0,0,0-1.85-.78H40.15V2.61h0A2.59,2.59,0,0,0,39.39.78h0A2.64,2.64,0,0,0,37.54,0h0A2.6,2.6,0,0,0,35.7.77a2.64,2.64,0,0,0-.77,1.85V20.49H18.52V2.61h0A2.59,2.59,0,0,0,17.76.78h0A2.64,2.64,0,0,0,15.91,0a2.59,2.59,0,0,0-1.83.76h0a2.64,2.64,0,0,0-.78,1.85V20.5H2.61a2.59,2.59,0,0,0-1.84.77h0A2.64,2.64,0,0,0,0,23.11H0a2.64,2.64,0,0,0,.19,1,2.59,2.59,0,0,0,1.4,1.4,2.64,2.64,0,0,0,1,.19H5V40.37H5A21.76,21.76,0,0,0,16.91,59.72a21.28,21.28,0,0,0,6.44,2.07l.78.12V72h0v.92a2.6,2.6,0,1,0,5.2,0h0v0Z"/></g></g></svg>