<svg xmlns="http://www.w3.org/2000/svg" viewBox="0 0 74.45 65.62"><path d="M61.56,1.63a20.86,20.86,0,0,1,6.78,4.54h0a20.93,20.93,0,0,1,0,29.61L50,54a3.16,3.16,0,0,1-2.2,1,2.77,2.77,0,0,1-2.77-2.77,3,3,0,0,1,1-2.14L64.37,31.82A15.33,15.33,0,1,0,42.69,10.14l-3.47,3.47a2.79,2.79,0,0,1-3.91,0c-1.21-1.11-2.34-2.42-3.55-3.54a15.29,15.29,0,0,0-21.68,0A15.1,15.1,0,0,0,6.75,15,15.31,15.31,0,0,0,10.1,31.78l21.8,21.8,5.31,5.31,1.9,1.9a2.77,2.77,0,0,1-1.85,4.84H37.2a2.75,2.75,0,0,1-1.07-.22,2.84,2.84,0,0,1-.86-.56L6.15,35.72a21,21,0,0,1-4.56-6.8A20.92,20.92,0,0,1,28.92,1.59a21,21,0,0,1,6.8,4.56l1.53,1.53,1.5-1.5A21,21,0,0,1,61.56,1.63Z"/></svg>