<svg xmlns="http://www.w3.org/2000/svg" viewBox="0 0 63.87 64.65"><defs><style>.cls-1{fill:none;stroke:#231f20;stroke-linecap:round;stroke-linejoin:round;stroke-width:5.67px;}.cls-2{fill:#231f20;}</style></defs><title>icon_bascketРесурс 1</title><g id="Слой_2" data-name="Слой 2"><g id="Слой_1-2" data-name="Слой 1"><path class="cls-1" d="M16.77,18a15.16,15.16,0,0,1,30.32,0"/><path class="cls-2" d="M5.67,59H58.2V18.74h0V15.93h0v0A2.81,2.81,0,0,1,61,13.07h.07a2.83,2.83,0,0,1,2.78,2.83V61.82A2.83,2.83,0,0,1,61,64.65H2.83A2.83,2.83,0,0,1,0,61.82V15.9H0v-.07H0v-.07H0v-.07H0v-.07H0v-.07H0v-.07H0V15.4H0v-.07h0l0-.07h0l0-.07h0l0-.13h0l0-.07h0l0-.06h0l0-.06h0l0-.06h0l.09-.19h0l0-.06h0l0-.06h0a2.85,2.85,0,0,1,.19-.28h0a2.89,2.89,0,0,1,.22-.26h0l.1-.1h0l.26-.22h0l.28-.19h0l.06,0h0l.06,0h0l.19-.09h0l.06,0h0l.06,0h0l.06,0h0l.07,0H2l.13,0h0l.07,0h0l.07,0h.57a2.84,2.84,0,0,1,2.81,3.2v9.48h0V59Z"/></g></g></svg>