<svg xmlns="http://www.w3.org/2000/svg" viewBox="0 0 75.56 75.9"><defs><style>.cls-1{stroke:#000;stroke-linecap:round;stroke-linejoin:round;stroke-width:0.99px;}</style></defs><title>icon_callРесурс 1</title><g id="Слой_2" data-name="Слой 2"><g id="Слой_1-2" data-name="Слой 1"><path class="cls-1" d="M63.27,45.15c-3.36-3.49-8-3.41-11.41,0l-5.3,5.29A52.12,52.12,0,0,1,29.8,36.27a34,34,0,0,1-4.53-7.15c1.38-1.26,2.65-2.57,3.89-3.83l1.41-1.43c3.52-3.52,3.52-8.09,0-11.61-3-3-6.17-6.41-9.3-9.3A8,8,0,0,0,15.65.5a8,8,0,0,0-5.1,1.93C8.4,4.18,6.19,6.75,4.21,8.75a12.28,12.28,0,0,0-3.64,7.8A29.42,29.42,0,0,0,2.71,29,72.24,72.24,0,0,0,15.55,50.42,79,79,0,0,0,41.84,71c4.6,2.18,10.7,4.4,15.82,4.4a12.64,12.64,0,0,0,9-3.48c3.12-3,8.39-7.57,8.39-11.78a8.07,8.07,0,0,0-2.58-5.76l-9.21-9.25Zm.29,23.5a8.07,8.07,0,0,1-5.88,2.24c-4.4,0-9.92-2.06-13.86-3.94a74.55,74.55,0,0,1-24.77-19.4A68.14,68.14,0,0,1,7,27.43C5.41,23.25,4.84,20,5.1,16.92a7.7,7.7,0,0,1,2.32-5l5.72-5.72A3.81,3.81,0,0,1,15.68,5c1.31,0,2.14.87,3,1.69,2.93,2.81,5.82,5.86,8.7,8.74,1.78,1.78,1.78,3.42,0,5.2-.49.49-1,1-1.44,1.44-1.41,1.44-2.75,2.79-4.21,4.09,0,0-.07.05-.08.08a3.43,3.43,0,0,0-.87,3.81l.05.15a36.79,36.79,0,0,0,5.42,8.84l0,0C31.61,45.7,37.53,51,45.08,54.8a3.64,3.64,0,0,0,1.66.42,3.59,3.59,0,0,0,2.55-1.16L55,48.32c1.57-1.57,3.4-1.74,5,0l9.28,9.28c3.64,3.61-3.13,8.65-5.7,11.09Z"/></g></g></svg>