<svg xmlns="http://www.w3.org/2000/svg" viewBox="0 0 74.48 65.63"><defs><style>.cls-1{fill:#fff;}</style></defs><title>heart_white</title><g id="Слой_2" data-name="Слой 2"><g id="Слой_1-2" data-name="Слой 1"><path class="cls-1" d="M61.57,1.63a21,21,0,0,1,6.78,4.54h0a20.94,20.94,0,0,1,0,29.6h0L39.56,64.45a3.2,3.2,0,0,1-2.2,1,2.77,2.77,0,0,1-2.77-2.77h0a3,3,0,0,1,1-2.14L64.38,31.82A15.33,15.33,0,0,0,42.7,10.14l-3.47,3.47a2.78,2.78,0,0,1-3.91,0c-1.21-1.11-2.34-2.42-3.55-3.54A15.3,15.3,0,0,0,10.14,10l-.05.06A15,15,0,0,0,6.76,15a15.3,15.3,0,0,0,3.35,16.78l21.8,21.8,5.31,5.31,1.9,1.9a2.77,2.77,0,0,1-1.85,4.84h-.06a2.77,2.77,0,0,1-1.07-.22,2.72,2.72,0,0,1-.86-.56L6.16,35.72A20.91,20.91,0,0,1,28.93,1.59a21.13,21.13,0,0,1,6.8,4.56l1.53,1.53,1.5-1.5A21,21,0,0,1,61.57,1.63Z"/></g></g></svg>