<svg xmlns="http://www.w3.org/2000/svg" viewBox="0 0 74.48 65.67"><defs><style>.cls-1{fill:#fff;}.cls-2{fill:#f259a9;}</style></defs><title>heart</title><g id="Слой_2" data-name="Слой 2"><g id="Слой_1-2" data-name="Слой 1"><path class="cls-1" d="M39.12,60.79a2.77,2.77,0,0,1-1.85,4.84h-.06a2.77,2.77,0,0,1-1.07-.22,2.72,2.72,0,0,1-.86-.56L6.16,35.72A20.91,20.91,0,0,1,28.93,1.59a21.13,21.13,0,0,1,6.8,4.56l1.53,1.53,1.5-1.5a20.89,20.89,0,0,1,29.59,0h0a20.94,20.94,0,0,1,0,29.6s0,0-10.58,10.58"/><path class="cls-2" d="M61.57,1.67a20.83,20.83,0,0,1,6.78,4.54h0a20.93,20.93,0,0,1,0,29.59v0L39.44,64.6a3.16,3.16,0,0,1-2.2,1,2.77,2.77,0,0,1-2.77-2.77h0a3,3,0,0,1,1-2.14L64.38,31.86A15.33,15.33,0,0,0,42.7,10.18l-3.47,3.47a2.8,2.8,0,0,1-3.91,0c-1.21-1.11-2.34-2.42-3.55-3.54a15.29,15.29,0,0,0-21.63-.06l-.05.06A14.92,14.92,0,0,0,6.76,15a15.3,15.3,0,0,0,3.35,16.78l21.8,21.8,5.31,5.31,1.9,1.9a2.77,2.77,0,0,1-1.85,4.84h-.06a3,3,0,0,1-1.07-.22,3.11,3.11,0,0,1-.86-.56L6.16,35.76A20.91,20.91,0,1,1,35.73,6.19l1.53,1.53,1.5-1.5A21,21,0,0,1,61.57,1.67Z"/></g></g></svg>