<svg xmlns="http://www.w3.org/2000/svg" viewBox="0 0 289.04 386.24"><path d="M268.16,168.32h-5.68V118a118,118,0,1,0-236,0,10.8,10.8,0,1,0,21.6,0,96.4,96.4,0,0,1,192.8,0v50.32h-220A20.89,20.89,0,0,0,0,189.2V323.68a62.65,62.65,0,0,0,62.56,62.56H226.48A62.65,62.65,0,0,0,289,323.68V189.2a20.89,20.89,0,0,0-20.88-20.88Zm-.72,155.36a41,41,0,0,1-41,41H62.64a41,41,0,0,1-41-41V189.92H267.44Z" fill="#f259a9"/><path d="M144.56,319.28a40.4,40.4,0,1,0-40.4-40.4,40.44,40.44,0,0,0,40.4,40.4Zm0-59.28a18.84,18.84,0,1,1-18.8,18.88A18.83,18.83,0,0,1,144.56,260Z" fill="#f259a9"/></svg>