<svg xmlns="http://www.w3.org/2000/svg" viewBox="0 0 81.04 47.97"><title>Ресурс 1</title><g id="Слой_2" data-name="Слой 2"><g id="Слой_1-2" data-name="Слой 1"><path d="M79.65,20.38c-.87-1-1.8-2-2.68-2.86A69.26,69.26,0,0,0,60.2,5.06,45.39,45.39,0,0,0,47.39.57,38.16,38.16,0,0,0,40.67,0h-.19a37.57,37.57,0,0,0-6.85.57A46.25,46.25,0,0,0,20.81,5.06,69,69,0,0,0,4,17.52c-1,1-1.9,1.93-2.69,2.86A5.53,5.53,0,0,0,0,23.82v.25a5.53,5.53,0,0,0,1.36,3.44A60.65,60.65,0,0,0,10,35.6q11.5,9.16,22.53,11.58a38.44,38.44,0,0,0,8.05.79,37.79,37.79,0,0,0,7.92-.79Q59.66,44.78,71.11,35.6a59.83,59.83,0,0,0,8.54-8.1,5.28,5.28,0,0,0,0-7.13Zm-3.69,4A52.86,52.86,0,0,1,68,31.82C61.09,37.36,54.27,41,47.48,42.38a33.83,33.83,0,0,1-6.91.71h-.13a32.78,32.78,0,0,1-6.82-.71Q23.57,40.24,13,31.82a51.27,51.27,0,0,1-7.83-7.48c-.31-.22-.31-.49,0-.79a13.19,13.19,0,0,1,1.14-1.32c.56-.58,1-1,1.19-1.28A62.29,62.29,0,0,1,23.06,9.51,41.67,41.67,0,0,1,34.5,5.41a35.92,35.92,0,0,1,6.07-.53,34.59,34.59,0,0,1,6,.53A41.86,41.86,0,0,1,58,9.51,60.47,60.47,0,0,1,73.53,20.95q1.72,1.72,2.42,2.6a.54.54,0,0,1,0,.79Z"/><path d="M40.57,8.49A15.48,15.48,0,0,0,25,24,14.77,14.77,0,0,0,29.57,34.9a15.1,15.1,0,0,0,11,4.49A14.78,14.78,0,0,0,51.44,34.9,14.84,14.84,0,0,0,56,24a15,15,0,0,0-4.53-11A14.71,14.71,0,0,0,40.57,8.49Zm7.44,23a10.1,10.1,0,0,1-7.44,3.08A10.67,10.67,0,0,1,29.92,24,10.67,10.67,0,0,1,40.57,13.38,10.06,10.06,0,0,1,48,16.5,10.19,10.19,0,0,1,51.09,24,10.2,10.2,0,0,1,48,31.47Z"/></g></g></svg>