<svg xmlns="http://www.w3.org/2000/svg" xmlns:xlink="http://www.w3.org/1999/xlink" viewBox="0 0 290.64 168"><path d="M278,132c-6.33-7.6-13.52-14.41-20.47-21-2.47-2.34-5-4.76-7.5-7.17C243,97,242.7,94.36,248.31,86.5c3.87-5.41,8-10.84,12-16.09,3.61-4.76,7.33-9.68,10.91-14.62l.73-1c6.83-9.45,13.89-19.22,17.65-31,1-3.11,2-7.68-.34-11.51s-6.88-5-10.1-5.53a27.56,27.56,0,0,0-4.63-.31l-44.72,0h-.37c-6.76,0-11.32,3.19-13.93,9.74-2.49,6.27-5.23,12.93-8.36,19.28C200.89,48,193,62.58,181.56,74.71l-.48.52c-1.35,1.45-2.88,3.09-4,3.09a2,2,0,0,1-.57-.1c-2.37-.92-4-6.65-3.88-9.32,0,0,0-.07,0-.11l0-51.69a3.94,3.94,0,0,0,0-.53c-1.14-8.4-3.66-13.63-13.18-15.5a3.91,3.91,0,0,0-.77-.07h-46.5c-7.57,0-11.75,3.08-15.67,7.69-1.06,1.23-3.26,3.8-2.17,6.91s4.71,3.83,5.88,4.05c5.82,1.11,9.1,4.66,10,10.88,1.62,10.8,1.82,22.32.63,36.26a30.46,30.46,0,0,1-2.07,9.43c-.25.6-1.15,2.54-2.06,2.54A5.16,5.16,0,0,1,104,77.6c-3.61-2.47-6.25-6-9.32-10.35A244,244,0,0,1,67.83,17.42C65,10.52,59.74,6.66,53,6.54c-7.42-.11-14.15-.17-20.57-.17-7,0-13.51.07-19.86.2C7.13,6.67,3.37,8.3,1.4,11.42s-1.85,7.22.38,12.19c17.9,39.78,34.12,68.7,52.61,93.79,13,17.55,25.95,29.7,40.89,38.23,15.74,9,33.38,13.38,53.92,13.38,2.33,0,4.74-.05,7.16-.17,11.94-.58,16.37-4.9,16.93-16.53.27-5.94.92-12.17,3.84-17.48,1.84-3.35,3.56-3.35,4.13-3.35a7.63,7.63,0,0,1,3.88,1.44,36.48,36.48,0,0,1,6.66,6c1.72,1.89,3.42,3.79,5.12,5.7,3.67,4.11,7.47,8.37,11.44,12.4,8.68,8.83,18.25,12.72,29.23,11.88h41.26a12,12,0,0,0,9.71-6.22A16.37,16.37,0,0,0,288.4,147,83.44,83.44,0,0,0,278,132Z" transform="translate(0 -1)" fill="#f259a9"/></svg>