<svg xmlns="http://www.w3.org/2000/svg" viewBox="0 0 135.82 135.82"><defs><style>.cls-1{fill:#231f20;stroke:#231f20;stroke-miterlimit:22.93;stroke-width:0.57px;fill-rule:evenodd;}</style></defs><title>Ресурс 1</title><g id="Слой_2" data-name="Слой 2"><g id="Слой_1-2" data-name="Слой 1"><path class="cls-1" d="M37.61.28h60.6a37.43,37.43,0,0,1,37.32,37.32v60.6a37.43,37.43,0,0,1-37.32,37.32H37.61A37.43,37.43,0,0,1,.28,98.21V37.61A37.43,37.43,0,0,1,37.61.28Zm66.62,22.6a8.8,8.8,0,1,0,6.22,2.57,8.83,8.83,0,0,0-6.22-2.57ZM67.91,33.06a34.85,34.85,0,1,0,34.85,34.85A34.89,34.89,0,0,0,67.91,33.06Zm0,57.7A22.85,22.85,0,1,1,90.76,67.91,22.88,22.88,0,0,1,67.91,90.75Z"/></g></g></svg>