<svg xmlns="http://www.w3.org/2000/svg" viewBox="0 0 409.6 332.87"><title>Ресурс 1</title><g id="Слой_2" data-name="Слой 2"><g id="Слой_1-2" data-name="Слой 1"><path d="M409.6,39.4a168,168,0,0,1-48.27,13.24A84.27,84.27,0,0,0,398.28,6.15a168.24,168.24,0,0,1-53.36,20.39,84.11,84.11,0,0,0-143.2,76.65A238.58,238.58,0,0,1,28.52,15.38a84.13,84.13,0,0,0,26,112.19,83.7,83.7,0,0,1-38.06-10.51c0,.35,0,.7,0,1.06a84.09,84.09,0,0,0,67.41,82.4,84.11,84.11,0,0,1-38,1.44,84.12,84.12,0,0,0,78.5,58.36A168.59,168.59,0,0,1,20,296.29a169.65,169.65,0,0,1-20-1.18,237.81,237.81,0,0,0,128.82,37.76c154.57,0,239.09-128,239.09-239.1q0-5.46-.24-10.87A170.7,170.7,0,0,0,409.6,39.4Z"/></g></g></svg>