<svg xmlns="http://www.w3.org/2000/svg" viewBox="0 0 62.58 76.9"><title>Ресурс 1</title><g id="Слой_2" data-name="Слой 2"><g id="Слой_1-2" data-name="Слой 1"><path d="M62.58,69.21c-.26-7.49-2.39-28.31-13.34-28-2.12.05-3.43,2.1-7.08,4.32a20.48,20.48,0,0,1-10.86,2.89h0A20.48,20.48,0,0,1,20.43,45.5c-3.65-2.22-5-4.27-7.08-4.32C2.39,40.9.26,61.72,0,69.21v.53c.36,9.58,62.22,9.53,62.58,0v-.53Z"/><path d="M31.29,41.63c11.57,0,15.73-11.58,16.82-21.09C49.45,8.82,43.91,0,31.29,0S13.13,8.82,14.48,20.54c1.09,9.51,5.25,21.09,16.82,21.09Z"/></g></g></svg>