<svg xmlns="http://www.w3.org/2000/svg" xmlns:xlink="http://www.w3.org/1999/xlink" viewBox="0 0 40.8 42.37"><defs><style>.cls-1{fill:none;}.cls-2{clip-path:url(#clip-path);}</style><clipPath id="clip-path" transform="translate(0 -0.59)"><rect class="cls-1" width="40.8" height="43.92"/></clipPath></defs><title>Ресурс 1</title><g id="Слой_2" data-name="Слой 2"><g id="Слой_1-2" data-name="Слой 1"><g class="cls-2"><path d="M22.4,16.59H11.2a.8.8,0,0,0,0,1.6H22.4a.8.8,0,0,0,0-1.6Z" transform="translate(0 -0.59)"/><path d="M40.58,41.61,28.69,29.24a16.82,16.82,0,1,0-1.18,1.08L39.42,42.72A.79.79,0,0,0,40,43a.8.8,0,0,0,.58-1.35ZM1.6,17.39a15.2,15.2,0,1,1,15.2,15.2A15.21,15.21,0,0,1,1.6,17.39Z" transform="translate(0 -0.59)"/></g></g></g></svg>